<?xml version="1.0" encoding="UTF-8" standalone="no"?>
<!-- Created with Inkscape (http://www.inkscape.org/) -->

<svg
   width="110.18092mm"
   height="105.59101mm"
   viewBox="0 0 110.18092 105.59101"
   version="1.1"
   id="svg1"
   inkscape:version="1.4 (86a8ad7, 2024-10-11)"
   sodipodi:docname="logo.svg"
   xmlns:inkscape="http://www.inkscape.org/namespaces/inkscape"
   xmlns:sodipodi="http://sodipodi.sourceforge.net/DTD/sodipodi-0.dtd"
   xmlns="http://www.w3.org/2000/svg"
   xmlns:svg="http://www.w3.org/2000/svg">
  <sodipodi:namedview
     id="namedview1"
     pagecolor="#ffffff"
     bordercolor="#000000"
     borderopacity="0.25"
     inkscape:showpageshadow="2"
     inkscape:pageopacity="0.0"
     inkscape:pagecheckerboard="0"
     inkscape:deskcolor="#d1d1d1"
     inkscape:document-units="mm"
     inkscape:zoom="1.3950758"
     inkscape:cx="94.260114"
     inkscape:cy="173.10888"
     inkscape:window-width="1920"
     inkscape:window-height="1001"
     inkscape:window-x="-9"
     inkscape:window-y="-9"
     inkscape:window-maximized="1"
     inkscape:current-layer="layer1" />
  <defs
     id="defs1" />
  <g
     inkscape:label="Layer 1"
     inkscape:groupmode="layer"
     id="layer1"
     transform="translate(-204.25832,-128.5875)">
    <path
       style="fill:#000000"
       d="m 265.83238,233.93642 c -0.59028,-0.23727 -0.59531,-0.28523 -0.59531,-5.67566 v -5.43638 l 0.85127,-0.51769 c 1.71627,-1.04372 4.71636,-1.00736 6.32493,0.0767 1.29475,0.87254 1.87274,2.05391 1.88978,3.86259 0.0288,3.0548 -1.50905,4.64454 -4.5,4.65193 l -1.65491,0.004 -3.3e-4,1.4905 c -2.9e-4,1.3219 -0.0677,1.50854 -0.59564,1.65003 -0.7559,0.20258 -0.98747,0.1883 -1.71979,-0.10606 z m 5.04146,-6.39239 c 0.39877,-0.81581 0.42997,-1.15279 0.18945,-2.04602 -0.31824,-1.18186 -0.98378,-1.68292 -2.069,-1.55768 -0.6963,0.0803 -0.71652,0.1324 -0.79309,2.04207 -0.10229,2.5511 -0.024,2.72187 1.20093,2.62055 0.84946,-0.0703 1.06386,-0.22453 1.47171,-1.05892 z m 17.43729,6.41908 c -1.11234,-0.28185 -1.9074,-1.00144 -1.9074,-1.72633 0,-0.85603 0.49615,-1.23882 1.15127,-0.88822 0.77424,0.41436 3.20398,0.39805 3.71364,-0.0249 0.23472,-0.1948 0.42676,-0.55775 0.42676,-0.80657 0,-0.38518 -0.21077,-0.43491 -1.4187,-0.33474 -2.74054,0.22726 -4.40213,-1.36381 -4.40213,-4.21531 0,-2.65917 1.49007,-4.16415 4.35839,-4.40202 1.72544,-0.14308 4.03654,0.75694 4.26326,1.66026 0.0814,0.32422 0.10956,2.43987 0.0626,4.70145 -0.0929,4.47788 -0.19454,4.78823 -1.84785,5.64319 -0.90212,0.4665 -3.27407,0.67849 -4.39987,0.39322 z m 3.3303,-8.05505 c 0.0621,-1.39494 -0.007,-1.79287 -0.33132,-1.91744 -0.68468,-0.26274 -1.69951,0.13444 -2.16716,0.84816 -0.92788,1.41614 0.39712,3.57431 1.8631,3.03461 0.4778,-0.1759 0.5682,-0.45553 0.63538,-1.96533 z m -74.18783,4.62204 c -1.74955,-0.79455 -2.5457,-2.22747 -2.52771,-4.54942 0.0131,-1.69806 0.87173,-3.24486 2.1342,-3.84496 3.11642,-1.48135 6.63739,0.087 6.63739,2.95639 0,1.42788 -0.17361,1.53384 -3.25294,1.98544 -1.2798,0.18768 -2.38312,0.4322 -2.45183,0.54337 -0.47773,0.77298 3.1672,1.41756 4.37147,0.77305 0.61569,-0.32951 1.14512,0.24208 1.02288,1.10436 -0.20065,1.41542 -3.73528,2.03006 -5.93346,1.03177 z m 2.53971,-5.47 c 0.95629,-0.18471 1.0056,-0.48943 0.16801,-1.03824 -0.7485,-0.49044 -1.82886,-0.1893 -2.26858,0.63233 -0.42116,0.78694 -0.35413,0.88004 0.51308,0.71254 0.43656,-0.0843 1.15093,-0.22231 1.58749,-0.30663 z m 6.15157,5.70132 c -0.57727,-0.23204 -0.59532,-0.35059 -0.59532,-3.91098 0,-4.14331 0.0271,-4.20707 2.09693,-4.93735 2.4271,-0.85633 5.39465,-0.18156 6.2199,1.41431 0.31103,0.60145 0.41443,1.62269 0.41443,4.09315 0,3.29054 -2.5e-4,3.29181 -0.66146,3.45776 -0.90744,0.22775 -1.9461,-0.0719 -2.25594,-0.65086 -0.14168,-0.26473 -0.2576,-1.65597 -0.2576,-3.09164 0,-2.81933 -0.17365,-3.24532 -1.32292,-3.24532 -1.18117,0 -1.32292,0.39925 -1.32292,3.72623 0,2.98206 -0.021,3.09686 -0.59531,3.25076 -0.7559,0.20258 -0.98747,0.18829 -1.71979,-0.10606 z m 10.84791,0 c -0.57726,-0.23204 -0.59531,-0.35059 -0.59531,-3.91098 0,-4.14331 0.0271,-4.20707 2.09692,-4.93735 2.4271,-0.85633 5.39466,-0.18156 6.21991,1.41431 0.31117,0.60174 0.41442,1.6234 0.41442,4.10081 v 3.29941 l -0.74778,0.16424 c -0.41128,0.0903 -1.04938,0.0496 -1.418,-0.0906 -0.81303,-0.30912 -1.00922,-1.10862 -1.00922,-4.11283 0,-2.34875 -0.21239,-2.79797 -1.32291,-2.79797 -1.18118,0 -1.32292,0.39925 -1.32292,3.72623 0,2.98206 -0.021,3.09686 -0.59531,3.25076 -0.75591,0.20258 -0.98747,0.18829 -1.7198,-0.10606 z m 12.48077,-0.22891 c -1.37878,-0.62622 -2.11949,-1.57728 -2.45811,-3.15619 -0.50404,-2.35027 0.4126,-4.46322 2.32654,-5.36287 2.90238,-1.36428 6.37008,0.39392 6.37008,3.22978 0,1.25709 -0.24008,1.39247 -3.25295,1.83432 -1.2798,0.18768 -2.38312,0.4322 -2.45182,0.54337 -0.0687,0.11116 0.14169,0.38886 0.46754,0.6171 0.66065,0.46273 2.72196,0.55342 3.7443,0.16473 0.84544,-0.32143 1.35833,0.2255 1.11618,1.19029 -0.34717,1.38322 -3.70115,1.92077 -5.86176,0.93947 z m 2.53434,-5.47241 c 0.9558,-0.18462 1.00563,-0.48941 0.16957,-1.03722 -0.66031,-0.43265 -1.30601,-0.32573 -2.0878,0.34571 -0.76223,0.65465 -0.58952,1.17588 0.33073,0.99814 0.43656,-0.0843 1.15094,-0.22231 1.5875,-0.30663 z m 6.15156,5.70132 c -0.5775,-0.23213 -0.59531,-0.34977 -0.59531,-3.93308 0,-2.97996 0.0791,-3.77287 0.40918,-4.10297 0.47237,-0.47237 2.8045,-1.21613 3.8133,-1.21613 1.02632,0 1.86294,0.70044 1.86294,1.55968 0,0.69155 -0.0918,0.75047 -1.52136,0.97719 l -1.52135,0.24126 -0.0741,3.21236 c -0.0707,3.06507 -0.10099,3.21957 -0.66146,3.36982 -0.7476,0.20042 -0.98091,0.18568 -1.71188,-0.10813 z m 19.38423,-0.10858 c -1.20595,-0.44937 -1.65199,-0.95384 -1.86977,-2.11471 -0.19551,-1.04215 0.21636,-2.12661 1.00356,-2.64241 0.33886,-0.22203 1.4284,-0.51872 2.42119,-0.65932 0.99278,-0.1406 1.86891,-0.31947 1.94693,-0.3975 0.078,-0.078 -0.0216,-0.33887 -0.22145,-0.57965 -0.30376,-0.36601 -0.69983,-0.41182 -2.41605,-0.27948 -2.02108,0.15586 -2.05526,0.14818 -2.21746,-0.49809 -0.21165,-0.84326 0.231,-1.36483 1.44434,-1.70185 2.20969,-0.61377 4.69391,-0.12604 5.74985,1.12888 0.62424,0.74186 0.65056,0.91566 0.57965,3.82812 -0.0713,2.92992 -0.10131,3.07112 -0.75531,3.55878 -0.93239,0.69525 -4.20463,0.90158 -5.66548,0.35723 z m 2.97306,-1.90202 c 0.44284,-0.11868 0.59532,-0.35495 0.59532,-0.92243 0,-0.61583 -0.11476,-0.7622 -0.59532,-0.75928 -1.60369,0.01 -2.37326,0.69418 -1.6235,1.44394 0.44031,0.44031 0.71668,0.48078 1.6235,0.23777 z m 18.31232,1.68811 c -1.67026,-0.84226 -2.43936,-2.38317 -2.30961,-4.62736 0.11447,-1.97979 0.6611,-2.8516 2.33518,-3.72431 2.66508,-1.38932 5.95196,0.0122 6.49131,2.76786 0.26333,1.34544 -0.46131,1.83242 -3.30486,2.22102 -2.45445,0.33541 -3.00172,0.71142 -1.89642,1.30296 0.63375,0.33917 3.1865,0.35319 3.71269,0.0204 0.52529,-0.33223 1.06721,0.1508 1.06721,0.95124 0,1.61305 -3.73308,2.2795 -6.0955,1.08819 z m 2.58689,-5.36125 c 0.98775,-0.15358 1.0904,-0.23269 0.86018,-0.66287 -0.38497,-0.71932 -1.18678,-0.87155 -2.10085,-0.39886 -0.89513,0.46289 -1.18219,1.60369 -0.34395,1.36691 0.25466,-0.0719 0.96774,-0.20927 1.58462,-0.30518 z m 6.51042,5.57272 c -0.9643,-0.41953 -1.30874,-1.20591 -0.87951,-2.00793 0.20642,-0.3857 0.43716,-0.50075 0.74226,-0.37009 0.88789,0.38023 3.40919,0.45345 3.62439,0.10525 0.27786,-0.44958 -0.44003,-0.94243 -1.66584,-1.14366 -1.58788,-0.26066 -2.65106,-1.0594 -2.85465,-2.14464 -0.39223,-2.09075 1.22406,-3.56186 3.92702,-3.57427 2.37373,-0.0109 3.79929,1.06945 3.11019,2.35706 -0.23529,0.43963 -0.39978,0.48678 -0.95793,0.27458 -0.37062,-0.14091 -1.20189,-0.25621 -1.84726,-0.25621 -0.98794,0 -1.1734,0.0817 -1.1734,0.51718 0,0.38923 0.24547,0.56172 0.99219,0.69723 1.33599,0.24245 2.89742,1.05375 3.2323,1.67948 0.40855,0.76338 0.33021,2.19897 -0.15803,2.89603 -0.2373,0.33879 -0.82878,0.782 -1.31441,0.98491 -1.11828,0.46724 -3.68752,0.45922 -4.77732,-0.0149 z m -100.35917,-0.39251 c -0.15284,-0.28559 -0.2739,-2.21504 -0.2739,-4.36563 v -3.85385 h -1.42435 c -1.22601,0 -1.44465,-0.0776 -1.57015,-0.55756 -0.0802,-0.30666 -0.0375,-0.84244 0.0949,-1.19063 l 0.24069,-0.63306 h 4.51968 4.51968 l -0.0814,1.12448 -0.0814,1.12448 -1.52136,0.0794 -1.52135,0.0793 v 4.35242 4.35242 h -1.31361 c -1.02793,0 -1.37317,-0.11129 -1.5875,-0.51177 z m 48.14486,-25.70963 c -10.85453,-0.77197 -20.60256,-7.78499 -26.19671,-18.84668 -2.13241,-4.21656 -2.12236,-6.82306 0.0338,-8.77104 1.20838,-1.09171 2.81056,-1.56891 4.44475,-1.32384 1.48766,0.22309 2.12022,0.54621 5.24248,2.67794 10.12871,6.91541 16.33837,5.96724 16.68927,-2.54832 0.17851,-4.33192 -0.97687,-7.45765 -3.76978,-10.19866 -2.57648,-2.52862 -5.43653,-3.65157 -9.30317,-3.65272 -5.29252,-0.002 -8.57192,2.46712 -8.57192,6.45286 0,1.43597 -0.0872,1.70557 -0.7734,2.39179 -1.04974,1.04974 -2.17503,1.04068 -3.24182,-0.0261 -0.78573,-0.78573 -0.79791,-0.8393 -0.70725,-3.10885 0.11479,-2.87324 0.8693,-4.55989 2.99777,-6.70123 2.59045,-2.60613 5.8865,-3.79945 10.45595,-3.78554 3.22968,0.01 5.36747,0.49036 8.06979,1.81386 6.04087,2.95863 9.69362,9.14269 9.67087,16.3727 -0.0228,7.22903 -3.70936,11.86101 -9.7709,12.27648 -3.9156,0.26838 -9.17276,-1.70124 -14.73034,-5.51878 -3.83506,-2.63434 -4.35298,-2.33438 -2.46762,1.42914 1.75431,3.50192 3.35662,5.69807 6.31778,8.65923 4.02307,4.02307 8.04702,6.24327 13.20975,7.28843 2.92342,0.59182 7.96329,0.4153 10.99962,-0.38527 4.54637,-1.1987 11.14272,-5.0937 14.04198,-8.29147 1.87599,-2.06914 4.20306,-5.80023 5.25174,-8.42034 2.6105,-6.52229 2.82204,-14.77428 0.58281,-22.7351 -1.60097,-5.69173 -4.35797,-11.60947 -7.71196,-16.55331 -1.22803,-1.81014 -2.30424,-3.57584 -2.39156,-3.92377 -0.32871,-1.30967 1.01898,-2.80626 2.52704,-2.80626 0.81741,0 1.93447,1.15518 3.75768,3.88592 6.63552,9.93838 10.11295,20.39773 10.09969,30.37763 -0.006,4.84571 -0.46983,7.96914 -1.72715,11.64167 -1.68493,4.9215 -3.83654,8.48598 -7.27609,12.05397 -6.80272,7.05674 -16.51644,10.93258 -25.75313,10.27567 z m 10.02454,-34.22511 c -0.76604,-0.42819 -1.17182,-1.28048 -1.43843,-3.02124 -0.24405,-1.59345 -1.46091,-4.45478 -2.90868,-6.83945 -3.86708,-6.36961 -9.25866,-11.5617 -14.76327,-14.21705 -2.94086,-1.41863 -5.07016,-1.98607 -8.21795,-2.19 -2.86611,-0.18569 -3.5983,-0.67705 -3.5983,-2.41479 0,-0.85538 0.15665,-1.17865 0.85644,-1.76749 0.8391,-0.70606 0.90769,-0.71728 3.38966,-0.55463 4.3364,0.28419 8.07696,1.50691 12.36438,4.04171 8.3006,4.90744 17.10023,16.85809 17.71308,24.05587 0.12058,1.41615 0.0637,1.68429 -0.49099,2.31539 -0.76341,0.86854 -1.97081,1.11438 -2.90594,0.59168 z m 8.97786,-4.45338 c -0.43051,-0.39899 -0.80921,-1.23538 -1.10811,-2.4474 -1.92511,-7.80606 -5.04329,-13.8805 -10.39556,-20.25125 -2.00183,-2.38276 -5.31016,-5.44825 -8.95394,-8.2967 -3.24538,-2.537 -3.57188,-2.89856 -3.57188,-3.95542 0,-1.69481 1.49854,-2.74097 3.1203,-2.17835 2.20656,0.7655 11.2106,8.9239 14.66854,13.29091 4.55845,5.75682 7.98885,12.73947 9.59743,19.53571 0.54992,2.32339 0.5812,2.73195 0.26679,3.48444 -0.63036,1.50865 -2.43805,1.91676 -3.62357,0.81806 z"
       id="path3" />
  </g>
</svg>
